# xmcd
#
# Track frame offsets:
#	150
#	45669
#	75019
#	119670
#	161966
#	194521
#
# Disc length: 2973 seconds
#
# Revision: 0
# Processed by: cddbd v1.5.2PL0 Copyright (c) Steve Scherf et al.
# Submitted via: audiograbber 1.83.01
#
DISCID=490b9b06
DTITLE=Grateful Dead - 93-03-29 Knickerbocker Arena, Albany NY
DYEAR=1900
DGENRE=
TTITLE0=Jam
TTITLE1=The Last Time
TTITLE2=Wharf Rat
TTITLE3=Throwing Stones
TTITLE4=Not Fade Away
TTITLE5=Liberty
EXTD=
EXTT0=
EXTT1=
EXTT2=
EXTT3=
EXTT4=
EXTT5=
PLAYORDER=
